solid OpenSCAD_Model
  facet normal 0 0 -1
    outer loop
      vertex -2.5 -5.9 -75
      vertex -5.3 -3.3 -75
      vertex -5.3 -2.1 -75
    endloop
  endfacet
  facet normal 0 0 -1
    outer loop
      vertex 2.5 -5.9 -75
      vertex 5.3 -2.1 -75
      vertex 5.3 -3.3 -75
    endloop
  endfacet
  facet normal 0 0 -1
    outer loop
      vertex -2.5 -5.9 -75
      vertex -5.3 -2.1 -75
      vertex 2.5 -5.9 -75
    endloop
  endfacet
  facet normal 0 0 -1
    outer loop
      vertex 2.5 -5.9 -75
      vertex -5.3 -2.1 -75
      vertex 5.3 -2.1 -75
    endloop
  endfacet
  facet normal 0 0 1
    outer loop
      vertex -5.3 -2.1 75
      vertex -5.3 -3.3 75
      vertex -2.5 -5.9 75
    endloop
  endfacet
  facet normal 0 -0 1
    outer loop
      vertex 5.3 -3.3 75
      vertex 5.3 -2.1 75
      vertex 2.5 -5.9 75
    endloop
  endfacet
  facet normal 0 0 1
    outer loop
      vertex 2.5 -5.9 75
      vertex -5.3 -2.1 75
      vertex -2.5 -5.9 75
    endloop
  endfacet
  facet normal 0 0 1
    outer loop
      vertex 5.3 -2.1 75
      vertex -5.3 -2.1 75
      vertex 2.5 -5.9 75
    endloop
  endfacet
  facet normal -0.680451 -0.732793 0
    outer loop
      vertex -2.5 -5.9 -75
      vertex -5.3 -3.3 75
      vertex -5.3 -3.3 -75
    endloop
  endfacet
  facet normal -0.680451 -0.732793 0
    outer loop
      vertex -2.5 -5.9 -75
      vertex -2.5 -5.9 75
      vertex -5.3 -3.3 75
    endloop
  endfacet
  facet normal 0 -1 0
    outer loop
      vertex 2.5 -5.9 -75
      vertex -2.5 -5.9 75
      vertex -2.5 -5.9 -75
    endloop
  endfacet
  facet normal 0 -1 0
    outer loop
      vertex 2.5 -5.9 -75
      vertex 2.5 -5.9 75
      vertex -2.5 -5.9 75
    endloop
  endfacet
  facet normal 0.680451 -0.732793 0
    outer loop
      vertex 5.3 -3.3 -75
      vertex 2.5 -5.9 75
      vertex 2.5 -5.9 -75
    endloop
  endfacet
  facet normal 0.680451 -0.732793 0
    outer loop
      vertex 5.3 -3.3 -75
      vertex 5.3 -3.3 75
      vertex 2.5 -5.9 75
    endloop
  endfacet
  facet normal 1 0 0
    outer loop
      vertex 5.3 -2.1 -75
      vertex 5.3 -3.3 75
      vertex 5.3 -3.3 -75
    endloop
  endfacet
  facet normal 1 0 -0
    outer loop
      vertex 5.3 -2.1 -75
      vertex 5.3 -2.1 75
      vertex 5.3 -3.3 75
    endloop
  endfacet
  facet normal 0 1 0
    outer loop
      vertex -5.3 -2.1 -75
      vertex 5.3 -2.1 75
      vertex 5.3 -2.1 -75
    endloop
  endfacet
  facet normal 0 1 0
    outer loop
      vertex -5.3 -2.1 -75
      vertex -5.3 -2.1 75
      vertex 5.3 -2.1 75
    endloop
  endfacet
  facet normal -1 0 0
    outer loop
      vertex -5.3 -3.3 -75
      vertex -5.3 -2.1 75
      vertex -5.3 -2.1 -75
    endloop
  endfacet
  facet normal -1 0 0
    outer loop
      vertex -5.3 -3.3 -75
      vertex -5.3 -3.3 75
      vertex -5.3 -2.1 75
    endloop
  endfacet
endsolid OpenSCAD_Model
